<?xml version="1.0" standalone="no"?>
<!DOCTYPE svg PUBLIC "-//W3C//DTD SVG 1.1//EN" "http://www.w3.org/Graphics/SVG/1.1/DTD/svg11.dtd" >
<svg xmlns="http://www.w3.org/2000/svg">
<metadata>
<json>
{
	"fontURL": "http://eleanor-cms.ru",
	"designer": "Centroarts.com",
	"designerURL": "http://centroarts.com",
	"license": "",
	"fontFamily": "ico",
	"version": "Version 0.0",
	"fontId": "ico",
	"psName": "ico",
	"subFamily": "Regular",
	"fullName": "ico",
	"description": "Generated by IcoMoon"
}
</json>
</metadata>
<defs>
<font id="ico" horiz-adv-x="1024">
<font-face units-per-em="1024" ascent="1024" descent="0" />
<missing-glyph horiz-adv-x="1024" />
<glyph unicode="&#x20;" d="" horiz-adv-x="512" />
<glyph unicode="&#xe600;" d="M512 64c-247.424 0-448 200.576-448 448 0 190.528 119.36 352.192 287.040 416.96l102.784-102.784c-148.864-27.456-261.824-157.376-261.824-314.176 0-176.768 143.232-320 320-320s320 143.232 320 320c0 107.008-53.184 200.512-134.016 258.112l-121.984-130.112-64 320c247.36 0 448-200.576 448-448s-200.64-448-448-448z" />
<glyph unicode="&#xe601;" d="M896 448h-320v-320h-128v320h-320v128h320v320h128v-320h320v-128z" />
<glyph unicode="&#xe602;" d="M900.352 458.88c-12.928-7.616-22.656-20.352-28.992-38.144-4.672-12.16-6.976-38.72-6.976-79.552 0-35.072-2.496-60.8-7.424-77.056-4.928-16.384-14.656-30.080-29.056-41.152-14.4-11.136-32.064-19.072-52.992-23.872-21.056-4.736-51.136-7.104-90.432-7.104h-23.168v79.872c31.424 0 51.968 1.472 61.376 4.48s16.512 7.36 21.184 13.184c4.608 5.824 6.976 16 6.976 30.656 0 10.176 1.024 33.728 3.008 70.656 1.728 24.192 5.568 43.52 11.392 57.92 5.824 14.4 14.208 26.688 25.152 36.8 10.88 10.112 24.96 18.88 42.112 26.496-19.52 9.536-33.984 18.752-43.52 27.648-9.344 8.768-17.152 20.096-23.296 33.728s-9.92 31.488-11.328 53.44c-2.624 39.040-4.032 65.6-4.032 79.616 0 13.76-2.112 23.488-6.528 29.12s-11.136 9.856-20.352 12.672c-9.152 2.752-29.888 4.16-62.208 4.16v79.552h23.168c38.144 0 66.048-1.984 83.84-6.016 26.176-5.952 46.144-14.144 59.84-24.448 13.696-10.304 23.104-24 28.352-40.96 5.248-16.96 7.872-46.976 7.872-90.048 0-26.432 1.152-44.928 3.52-55.616 2.88-14.208 8.256-25.984 16.128-35.456s17.216-16.128 28.032-20.16c10.752-4.032 26.752-6.464 48-7.296v-80c-26.752-1.088-46.656-5.44-59.648-13.12zM262.336 199.104c-22.464 4.8-41.408 12.736-56.832 23.872-15.488 11.072-25.792 24.768-31.104 41.152-5.312 16.256-8 41.984-8 77.056 0 40.832-2.496 67.392-7.488 79.552-6.848 17.792-17.216 30.528-31.040 38.144-13.888 7.68-35.2 12.032-63.872 13.12v80c22.72 0.896 39.936 3.328 51.456 7.296 11.52 4.032 21.504 10.688 29.952 20.16 8.384 9.408 14.208 21.248 17.344 35.456 2.496 10.688 3.712 29.248 3.712 55.616 0 43.072 2.816 73.088 8.448 90.048 5.632 17.024 15.744 30.656 30.4 40.96 14.656 10.368 36.032 18.496 64.064 24.448 19.008 4.032 48.96 6.016 89.792 6.016h24.832v-79.552c-34.624 0-56.832-1.408-66.688-4.16-9.792-2.752-17.088-6.976-21.76-12.672-4.672-5.632-6.976-15.36-6.976-29.12 0-14.016-1.408-40.512-4.224-79.616-1.6-21.952-5.632-39.808-12.16-53.44-6.592-13.632-14.912-24.96-25.024-33.792-10.176-8.896-25.664-18.112-46.592-27.648 18.432-7.552 33.472-16.384 45.184-26.496s20.672-22.4 26.88-36.8c6.208-14.464 10.304-33.728 12.16-57.92 2.176-36.864 3.264-60.416 3.264-70.656 0-14.656 2.496-24.832 7.488-30.656 4.992-5.824 12.544-10.176 22.656-13.184 10.176-3.008 32.064-4.48 65.728-4.48v-79.808h-24.768c-42.048 0-74.368 2.368-96.832 7.104z" />
<glyph unicode="&#xe603;" d="M896 704h-384v128h384v-128zM416 192c-17.664 0-32 28.608-32 64s14.336 64 32 64c17.664 0 32-28.608 32-64s-14.336-64-32-64zM288 192c-17.664 0-32 28.608-32 64s14.336 64 32 64c17.664 0 32-28.608 32-64s-14.336-64-32-64zM288 448c-17.664 0-32 28.608-32 64 0 35.328 14.336 64 32 64 17.664 0 32-28.672 32-64 0-35.392-14.336-64-32-64zM160 192c-17.664 0-32 28.608-32 64s14.336 64 32 64c17.664 0 32-28.608 32-64s-14.336-64-32-64zM160 448c-17.664 0-32 28.608-32 64 0 35.328 14.336 64 32 64 17.664 0 32-28.672 32-64 0-35.392-14.336-64-32-64zM160 704c-17.664 0-32 28.672-32 64s14.336 64 32 64c17.664 0 32-28.672 32-64s-14.336-64-32-64zM896 448h-384v128h384v-128zM896 192h-384v128h384v-128z" />
<glyph unicode="&#xe604;" d="M910.464 253.76c-33.088-41.216-78.080-61.76-134.976-61.76-56.384 0-100.608 19.392-132.608 58.048h-9.024l-21.888-49.92h-99.968v221.376l238.336 238.336c9.344 1.28 18.432 2.816 28.544 2.816 56.64 0 100.992-20.928 133.056-62.72 32.064-41.856 48.064-99.2 48.064-171.968 0-75.008-16.512-133.12-49.536-174.208zM802.496 530.048c-16 22.336-37.888 33.472-65.6 33.472-32.384 0-56-9.408-70.784-28.224-14.912-18.816-22.656-49.856-23.168-93.248v-13.376c0-48.768 7.616-83.648 22.976-104.768 15.232-21.12 39.488-31.68 72.704-31.68 26.88 0 48.32 11.712 64.192 35.136s23.744 57.408 23.744 102.144-8.064 78.272-24.064 100.544zM512 602.496v229.504h130.88v-98.624l-130.88-130.88zM374.848 465.344c-3.392 26.368-9.216 49.216-20.352 64.704-16 22.336-37.888 33.472-65.664 33.472-32.32 0-55.936-9.408-70.784-28.224-14.912-18.752-22.592-49.856-23.168-93.184v-13.376c0-48.768 7.68-83.648 22.976-104.768 2.24-3.136 6.016-4.352 8.64-6.976l-116.928-116.864h-45.568v631.872h130.88v-147.008c0-18.688-1.728-48.576-5.184-89.728h5.184c30.592 44.928 75.904 67.392 136 67.392 56.64 0 100.992-20.928 133.056-62.72 6.592-8.64 12.032-18.304 17.28-28.16l-106.368-106.432zM511.616 421.12c-1.024-71.552-17.216-127.552-49.152-167.36-33.088-41.216-78.080-61.76-134.976-61.76-14.528 0-28.096 1.344-41.024 3.968l225.152 225.152z" />
<glyph unicode="&#xe605;" d="M870.059 562.133l-10.069 233.173 0.085-0.085 47.104 75.819-89.6 72.533-62.379-60.032c-34.773 19.925-72.747 34.773-113.109 43.819l-4.864 88.619-115.072 8.021-17.28-88.021c-38.485-3.669-76.288-12.8-112.469-27.392l-55.808 71.040-98.773-59.435 37.163-83.84c-5.12-4.437-10.112-9.003-15.061-13.696l-0.896-0.853c-2.005-1.92-4.011-3.883-5.973-5.845-2.688-2.645-5.291-5.376-7.893-8.107-0.811-0.853-1.579-1.707-2.347-2.517-1.579-1.664-3.115-3.285-4.608-4.949-1.237-1.365-2.475-2.773-3.669-4.139-1.024-1.152-2.048-2.304-3.072-3.456-1.451-1.707-2.859-3.371-4.267-5.077-0.725-0.853-1.451-1.707-2.176-2.603-1.749-2.133-3.456-4.267-5.12-6.357l-0.939-1.195c-1.877-2.389-3.712-4.821-5.547-7.253l-0.427-0.597c-1.963-2.56-3.883-5.163-5.76-7.765l-0.128-0.213c-2.603-3.627-5.12-7.296-7.595-11.008l-88.235 26.709-46.848-105.344 78.933-47.616c-2.901-11.307-5.376-22.827-7.339-34.517l-0.043-0.256c-0.555-3.157-1.024-6.315-1.493-9.515l-0.085-0.811c-0.427-3.029-0.853-6.059-1.195-9.088l-0.128-1.152c-0.341-2.901-0.683-5.76-0.939-8.661l-0.171-2.176c-0.256-2.603-0.469-5.205-0.64-7.851l-0.213-3.157c-0.171-2.261-0.299-4.523-0.427-6.784-0.085-1.92-0.128-3.797-0.213-5.717-0.043-1.451-0.128-2.944-0.171-4.395-0.171-6.4-0.171-12.8-0.043-19.2l-87.595-28.587 22.059-113.152 91.093 6.187 0.683-1.749c0.469-1.237 0.939-2.603 1.451-3.84 0.64-1.664 1.28-3.328 1.963-4.992 0.725-1.749 1.408-3.499 2.133-5.248 0.555-1.237 1.067-2.603 1.621-3.84 0.896-2.005 1.749-4.096 2.645-6.101l1.237-2.731c1.109-2.432 2.219-4.821 3.371-7.253l0.725-1.408c1.323-2.731 2.645-5.504 4.011-8.149l0.299-0.597c9.771-19.157 21.163-37.675 34.091-55.339l-54.443-72.661 82.944-80 69.675 56.149c27.051-18.987 55.851-34.347 85.717-46.165l1.109-0.427c2.645-1.067 5.248-2.091 7.893-3.072l1.92-0.683c2.261-0.853 4.565-1.664 6.869-2.432l0.384-0.171-2.859-88.576 113.877-18.005 24.235 84.096h0.469l50.005 170.069-40.363 69.931c-3.2-0.171-6.4-0.256-9.643-0.256v0.085c-3.584 0-7.125 0.085-10.709 0.341-16.768 0.981-32.811 4.267-47.872 9.429l-0.597 0.256c-1.067 0.427-2.176 0.768-3.243 1.152l-3.413 1.365-2.603 1.067-1.408 0.597c-23.339 9.899-44.885 25.088-62.891 45.355-65.109 73.259-58.539 185.472 14.763 250.581 16.384 14.549 34.688 25.557 54.059 32.981-20.565-27.051-33.579-60.331-35.755-96.811-5.76-97.877 68.907-181.931 166.784-187.648 1.536-0.085 3.029-0.171 4.523-0.171l120.619-130.432-7.979-71.68 89.131-25.6 21.291-11.093 1.664-6.827 37.077 1.493 100.053 129.024-111.275 276.48zM680.491 662.443l110.891-41.771 3.797-113.195-114.688 154.965z" />
<glyph unicode="&#xe606;" d="M704 448v128h256v-128h-256zM602.496 692.992l180.992 181.056 90.56-90.56-181.056-180.992-90.496 90.496zM448 320h128v-256h-128v256zM448 960h128v-256h-128v256zM149.952 240.512l181.056 180.992 90.496-90.496-180.992-181.056-90.56 90.56zM149.952 783.488l90.56 90.56 180.992-181.056-90.496-90.496-181.056 180.992zM320 448h-256v128h256v-128zM874.048 240.512l-90.56-90.56-180.992 181.056 90.496 90.496 181.056-180.992z" />
<glyph unicode="&#xe607;" d="M543.488 658.688h-66.688l-92.8-466.688h66.624l92.864 466.688zM505.728 748.288c6.848-6.912 15.616-10.432 26.24-10.432 11.648 0 21.888 5.376 30.72 16.192 8.896 10.816 13.312 24 13.312 39.616 0 25.536-11.648 38.336-34.88 38.336-13.504 0-24.512-5.056-33.024-15.104-8.448-10.048-12.608-23.040-12.608-38.912 0-12.864 3.392-22.72 10.24-29.696z" />
<glyph unicode="&#xe608;" d="M786.24 256h-658.24v54.912c66.368 7.040 118.144 59.648 118.144 124.224v14.016 13.952 55.872c0 131.136 118.080 249.024 251.584 249.024h28.48c133.504 0 251.648-117.888 251.648-249.024v-55.872-13.952-13.952c0-64.64 51.776-117.184 118.144-124.224v-54.976h-109.76zM512 960c70.656 0 128-57.344 128-128h-256c0 70.656 57.344 128 128 128zM512 64c-70.656 0-128 57.344-128 128h256c0-70.656-57.344-128-128-128z" />
<glyph unicode="&#xe609;" d="M320 832c70.656 0 128-57.344 128-128s-57.344-128-128-128-128 57.344-128 128 57.344 128 128 128zM320 448c0 0 123.008-84.48 192-128 0.768-4.8 192 384 192 384l192-512h-768l192 256z" />
<glyph unicode="&#xe60a;" d="M704.512 192l-64.512 64.64 254.848 255.36-254.848 255.296 64.512 64.704 319.488-320-319.488-320zM416.64 198.272l128 640 62.72-12.544-128-639.936-62.72 12.48zM319.488 192l-319.488 320 319.488 320 64.512-64.704-254.912-255.296 254.912-255.36-64.512-64.64z" />
<glyph unicode="&#xe60b;" d="M192 576h640v-128h-640v128z" />
<glyph unicode="&#xe60c;" d="M461.248 632c17.216 3.008 34.24 4.864 50.752 4.864 141.376 0 320-113.92 320-254.4s-178.624-254.464-320-254.464-320 113.92-320 254.464c0 85.056 65.728 159.808 148.672 206.016l-45.824 103.488c-28.416 64.256 0.96 139.392 65.664 167.616l58.56 25.6c64.704 28.288 140.224-0.896 168.704-65.152l51.584-116.48-142.912 7.040-25.792 58.176-58.624-25.6 49.216-111.168zM320 382.464c0-70.272 121.344-127.232 192-127.232s192 57.024 192 127.232-121.344 127.168-192 127.168-192-56.96-192-127.168zM640 382.464c0-35.2-92.672-63.616-128-63.616s-128 28.416-128 63.616c0 35.072 92.672 63.616 128 63.616s128-28.544 128-63.616z" />
<glyph unicode="&#xe60d;" d="M800 832l160-192h-320l160 192zM384 192h-128v512h-192v128h512v-128h-192v-512zM800 192l-160 192h320l-160-192z" />
<glyph unicode="&#xe60e;" d="M193.088 512l254.912-255.36-64.512-64.64-319.488 320 319.488 320 64.512-64.64-254.912-255.36zM830.848 512l-254.848-255.36 64.512-64.64 319.488 320-319.488 320-64.512-64.64 254.848-255.36z" />
<glyph unicode="&#xe60f;" d="M832 283.456l-91.456-91.456-228.544 228.544-228.544-228.544-91.456 91.456 228.544 228.544-228.544 228.544 91.456 91.456 228.544-228.544 228.544 228.544 91.456-91.456-228.544-228.544 228.544-228.544z" />
<glyph unicode="&#xe610;" d="M768 618.688l-298.688-298.688-213.312 213.312 85.312 85.312 128-128 213.376 213.376 85.312-85.312z" />
<glyph unicode="&#xe611;" d="M192 384v64h640v-64h-640zM320 576v64h384v-64h-384zM192 832h640v-64h-640v64zM704 192h-384v64h384v-64z" />
<glyph unicode="&#xe612;" d="M320 192h226.048c68.288 0 122.432 16.384 162.176 49.024 39.872 32.704 59.776 78.208 59.776 136.576 0 41.152-8.512 74.112-25.344 98.816-17.024 24.832-44.608 41.728-82.88 50.752v4.48c28.096 4.992 50.624 19.712 67.52 44.224 17.024 24.512 25.472 55.936 25.472 94.144 0 56.32-19.392 97.408-58.112 123.2-38.656 25.792-100.928 38.72-186.624 38.72h-188.032v-639.936zM448.064 720.768h67.392c36.608 0 63.36-5.312 80.384-16 17.024-10.624 25.344-28.224 25.344-52.736 0-26.24-7.744-45.056-23.232-56.448-15.552-11.456-40.704-17.088-75.456-17.088h-74.432v142.272zM527.488 470.784c71.616 0 107.392-26.56 107.392-79.68 0-29.504-8.384-51.392-25.152-65.6-16.896-14.272-42.88-21.504-78.144-21.504h-83.52v166.784h79.424z" />
<glyph unicode="&#xe613;" d="M557.504 512l-237.504 244.544 73.28 75.456 310.72-320-310.72-320-73.28 75.456 237.504 244.544z" />
<glyph unicode="&#xe614;" d="M466.496 512l237.504-244.544-73.28-75.456-310.72 320 310.72 320 73.28-75.456-237.504-244.544z" />
<glyph unicode="&#xe615;" d="M640 192l91.392 91.392-100.672 100.608 9.28 64 64 9.28 100.608-100.608 91.392 91.328v-256h-256zM704 566.72l-64 9.28-9.28 64 100.608 100.608-91.328 91.392h256v-256l-91.392 91.392-100.608-100.672zM393.28 640l-9.28-64-64-9.28-100.608 100.672-91.392-91.392v256h256l-91.392-91.392 100.672-100.608zM320 457.28l64-9.28 9.28-64-100.608-100.608 91.328-91.392h-256v256l91.392-91.392 100.608 100.672z" />
<glyph unicode="&#xe616;" d="M960 445.248v-1.472c0-201.92-245.76-308.608-448-308.608-196.032 0-448 57.024-448 308.608v1.472 0 63.232 63.296c0 260.352 252.032 317.12 448 317.12 202.24 0 448-108.16 448-317.12v-63.296-63.232 0zM384 704.128v-128.96 0-128.96 0-126.144l320 186.944v3.712l-320 193.408z" />
<glyph unicode="&#xe617;" d="M512.128 629.12c-6.016-22.336-23.104-53.12-51.392-181.12h103.552c-26.624 128-41.6 136.896-44.992 147.712-3.264 10.816-5.76 27.136-7.168 33.408zM918.976 418.496c-40.896 64.128-41.472 128.64-1.472 193.408s22.72 105.344-51.52 121.728c-74.368 16.384-120.384 61.632-137.856 135.68-17.6 74.112-58.496 90.688-122.624 49.664-64.192-40.96-128.64-41.472-193.408-1.472-64.832 39.936-105.408 22.72-121.792-51.584-16.384-74.368-61.632-120.32-135.68-137.856s-90.624-58.432-49.6-122.56c40.96-64.128 41.472-128.64 1.472-193.344-39.936-64.896-22.72-105.472 51.584-121.856 74.368-16.384 120.32-61.632 137.856-135.616 17.536-74.176 58.432-90.688 122.56-49.664 64.192 40.896 128.64 41.472 193.408 1.472s105.408-22.72 121.792 51.52c16.384 74.368 61.632 120.384 135.616 137.856 74.176 17.6 90.688 58.496 49.664 122.624zM613.248 320l-28.8 64h-144.896l-28.8-64h-90.752l140.224 384h102.976l140.8-384h-90.752z" />
<glyph unicode="&#xe618;" d="M768 256h15.488l-128 128h112.512v384h-512v-384h112.448l-128-128h15.552c-70.656 0-128 57.344-128 128v384c0 70.656 57.344 128 128 128h512c70.656 0 128-57.344 128-128v-384c0-70.656-57.344-128-128-128zM512 384l256-256h-512l256 256z" />
<glyph unicode="&#xe619;" d="M690.24 832v-347.136c0-52.992-15.232-93.632-45.76-121.984-30.592-28.352-73.984-42.496-130.432-42.496-59.2 0-104 14.080-134.528 42.24-30.464 28.224-45.76 68.736-45.76 121.344v348.032h-77.76v-342.784c0-72.576 22.016-129.536 66.112-171.008 44.096-41.472 109.376-62.208 189.888-62.208 80.512 0 140.864 20.544 186.88 61.76 46.144 41.152 69.12 97.728 69.12 169.728v344.512h-77.76zM256 192h512v-64h-512v64z" />
<glyph unicode="&#xe61a;" d="M384 320h448v-128h-448v128zM256 320c35.328 0 64-28.608 64-64s-28.672-64-64-64-64 28.608-64 64 28.672 64 64 64zM384 576h448v-128h-448v128zM256 576c35.328 0 64-28.672 64-64 0-35.392-28.672-64-64-64s-64 28.608-64 64c0 35.328 28.672 64 64 64zM384 832h448v-128h-448v128zM256 832c35.328 0 64-28.672 64-64s-28.672-64-64-64-64 28.672-64 64 28.672 64 64 64z" />
<glyph unicode="&#xe61b;" d="M768 384h-192v-64l192-64v-64h-512v64l192 64v64h-192c-70.656 0-128 57.344-128 128v192c0 70.656 57.344 128 128 128h512c70.656 0 128-57.344 128-128v-192c0-70.656-57.344-128-128-128zM768 704h-512v-64 0-64 0-64h512v192z" />
<glyph unicode="&#xe61c;" d="M448 320v-128l-192 160 192 160v-128h384v-64h-384zM192 192v320h64v-160-160h-64zM768 672v160h64v-320h-64v160zM576 640h-384v64h384v128l192-160-192-160v128z" />
<glyph unicode="&#xe61d;" d="M512 64c-247.424 0-448 200.576-448 448 0 31.168 3.2 61.504 9.28 90.88-5.504 22.272-9.28 45.12-9.28 69.12 0 159.040 128.96 288 288 288 23.936 0 46.848-3.776 69.12-9.28 29.376 6.016 59.712 9.28 90.88 9.28 247.36 0 448-200.576 448-448s-200.64-448-448-448zM512 640v64h-128v128h-64v-128h-128v-64h128v-128h64v128h128zM533.632 893.824c64.384-52.8 106.368-132.032 106.368-221.824 0-159.040-128.96-288-288-288-89.792 0-169.024 41.984-221.824 106.368 11.392-201.792 177.152-362.368 381.824-362.368 212.032 0 384 171.968 384 384 0 204.672-160.576 370.368-362.368 381.824z" />
<glyph unicode="&#xe61e;" d="M512 64c-247.424 0-448 200.576-448 448s200.576 448 448 448c247.36 0 448-200.576 448-448s-200.64-448-448-448zM512 832c-176.768 0-320-143.232-320-320s143.232-320 320-320 320 143.232 320 320-143.232 320-320 320zM640 512c-35.392 0-64 28.672-64 64s28.608 64 64 64 64-28.672 64-64-28.608-64-64-64zM622.272 448h70.016c-26.56-74.368-96.768-128-180.288-128s-153.792 53.632-180.224 128h70.016c22.144-38.144 62.976-64 110.208-64s88.064 25.856 110.272 64zM384 512c-35.328 0-64 28.672-64 64s28.672 64 64 64 64-28.672 64-64-28.672-64-64-64z" />
<glyph unicode="&#xe61f;" d="M896 560v-96l-106.88-26.752c-6.592-24.128-16.256-46.976-28.48-68.096l56.832-94.656-67.904-67.968-94.656 56.896c-21.184-12.16-44.032-21.824-68.096-28.288l-26.816-107.136h-96l-26.752 107.072c-24.192 6.528-46.976 16.128-68.096 28.288l-94.72-56.896-67.904 67.968 56.832 94.656c-12.16 21.12-21.888 44.032-28.416 68.096l-106.944 26.816v96l106.88 26.752c6.592 24.128 16.256 46.976 28.416 68.16l-56.768 94.72 67.904 67.904 94.72-56.896c21.12 12.16 43.968 21.824 68.096 28.288l26.752 107.072h96l26.752-107.072c24.128-6.528 46.912-16.128 68.096-28.288l94.656 56.896 67.904-67.904-56.832-94.656c12.224-21.184 21.952-44.032 28.48-68.16l106.944-26.816zM512 704c-106.048 0-192-85.952-192-192 0-105.984 85.952-192 192-192s192 86.016 192 192c0 106.048-85.952 192-192 192z" />
<glyph unicode="&#xe620;" d="M448 192v64h384v-64h-384zM192 448h640v-64h-640v64zM448 640h384v-64h-384v64zM192 832h640v-64h-640v64z" />
<glyph unicode="&#xe621;" d="M327.232 425.472c0-50.944-5.568-84.48-16.768-100.608-11.2-16.192-30.272-24.256-57.344-24.256-26.752 0-46.656 11.264-59.776 33.856-8.704 14.848-13.76 40.384-15.104 76.352l-114.24-13.632c0.256-67.264 16.384-118.272 48.32-153.088 31.872-34.752 77.504-52.096 136.704-52.096 50.496 0 91.136 11.136 121.984 33.28 30.848 22.208 52.096 51.648 63.872 88.256 8.768 27.968 13.12 68.032 13.12 120.064v398.4h-120.768v-406.528zM578.88 246.272c37.376-36.224 90.88-54.272 160.512-54.272 47.872 0 87.808 7.488 119.872 22.592 32.128 15.040 56.896 38.080 74.432 68.992s26.304 64.128 26.304 99.52c0 39.104-7.36 71.936-22.016 98.496s-34.944 47.552-60.864 62.848c-25.92 15.296-65.984 30.144-120.128 44.48s-88.128 28.096-102.208 41.344c-11.072 10.432-16.576 22.912-16.576 37.504 0 16.064 5.888 28.864 17.664 38.4 18.304 14.912 43.584 22.336 75.968 22.336 31.296 0 54.72-6.912 70.528-20.864 15.616-13.888 25.792-36.8 30.656-68.544l111.232 5.504c-1.792 56.832-20.096 102.208-55.104 136.256-34.944 34.112-87.040 51.136-156.16 51.136-42.368 0-78.528-7.168-108.416-21.504-29.952-14.4-52.864-35.264-68.8-62.656-15.872-27.456-23.872-56.896-23.872-88.384 0-48.96 16.896-90.432 50.688-124.416 24.128-24.192 65.92-44.608 125.568-61.184 46.336-12.928 76.032-21.952 89.088-27.008 19.008-7.552 32.384-16.576 40-26.816s11.52-22.656 11.52-37.312c0-22.784-9.152-42.688-27.264-59.712-18.176-17.024-45.12-25.472-81.024-25.472-33.792 0-60.672 9.472-80.64 28.608-19.84 19.136-33.088 49.088-39.616 89.856l-108.224-11.776c7.232-69.248 29.568-121.856 66.88-157.952z" />
<glyph unicode="&#xe622;" d="M715.072 192l-62.464 64.64 246.528 255.36-246.528 255.36 62.464 64.64 308.928-320-308.928-320zM704 512c0-35.392-28.608-64-64-64s-64 28.608-64 64c0 35.328 28.608 64 64 64s64-28.672 64-64zM384 448c-35.328 0-64 28.608-64 64 0 35.328 28.672 64 64 64s64-28.672 64-64c0-35.392-28.672-64-64-64zM371.328 256.64l-62.4-64.64-308.928 320 308.928 320 62.464-64.64-246.592-255.36 246.528-255.36z" />
<glyph unicode="&#xe623;" d="M512 64c-35.392 0-64 28.608-64 64s28.608 64 64 64c176.768 0 320 143.232 320 320 0 35.392 28.608 64 64 64s64-28.608 64-64c0-247.424-200.576-448-448-448zM512 832c-176.768 0-320-143.232-320-320 0-35.392-28.608-64-64-64s-64 28.608-64 64c0 247.424 200.576 448 448 448 35.392 0 64-28.608 64-64s-28.608-64-64-64z" />
<glyph unicode="&#xe624;" d="M842.944 457.152l-86.336-89.984c-52.224-54.336-128.512-68.096-194.176-42.432l-74.432-77.504c-71.552-74.432-188.416-73.536-261.12 2.112l-43.776 45.696c-72.64 75.712-73.536 197.44-2.048 271.936l86.336 89.92c52.16 54.336 128.448 68.032 194.176 42.304l74.432 77.568c71.552 74.496 188.416 73.472 261.12-2.176l43.84-45.696c72.576-75.584 73.536-197.312 1.984-271.744zM724.224 708.416c-29.376 30.528-76.48 30.912-105.344 0.896l-104.512-108.8c-35.264-36.8-77.504-166.72-77.504-166.72-56.768 75.904-53.248 184.32 12.736 253.056l-82.432-85.888c-5.824-3.328-11.904-6.4-16.896-11.584l-104.448-108.8c-28.864-30.080-28.48-79.104 0.832-109.696l53.12-55.232c29.312-30.528 76.48-30.848 105.344-0.832l104.448 108.8c21.632 22.528 77.504 166.656 77.504 166.656 56.832-75.904 53.248-184.384-12.672-252.992l82.368 85.824c5.952 3.328 11.968 6.4 16.96 11.584l104.512 108.864c28.864 30.016 28.416 79.104-0.896 109.696l-53.12 55.168z" />
<glyph unicode="&#xe625;" d="M466.432 592.256c15.040-10.176 42.112-23.68 81.28-40.448 32.512-14.080 56.384-27.2 76.096-39.808h144.192v-64h-512v64h157.632c-22.528 14.464-40.512 29.76-53.056 46.208-22.4 29.504-33.6 65.024-33.6 106.496 0 51.968 17.792 92.864 53.312 122.624 35.584 29.76 83.328 44.672 143.232 44.672 57.344 0 114.624-13.056 171.52-39.168l-31.296-83.072c-53.248 23.296-100.864 34.944-142.72 34.944-31.744 0-55.808-7.168-72.192-21.504-16.448-14.336-24.64-33.28-24.64-56.832 0-16.128 3.264-30.016 9.856-41.472 6.528-11.584 17.344-22.4 32.384-32.64zM493.12 278.016c38.848 0 67.52 7.68 85.952 22.976 18.432 15.36 27.712 35.968 27.712 61.76 0 7.616-2.368 14.4-4.16 21.248h100.096c0.256-4.864 1.28-9.28 1.28-14.464 0-55.36-19.264-98.816-57.856-130.304-38.528-31.488-91.776-47.232-159.552-47.232-67.904 0-123.392 10.944-166.592 32.768v96.256c27.328-13.312 56.384-23.808 87.168-31.488s59.456-11.52 85.952-11.52z" />
<glyph unicode="&#xe626;" d="M768 192v64h64v-64h-64zM768 512h64v-64h-64v64zM384 832h448v-128h-448v128zM256 192c-35.328 0-64 28.608-64 64s28.672 64 64 64 64-28.608 64-64-28.672-64-64-64zM256 448c-35.328 0-64 28.608-64 64 0 35.328 28.672 64 64 64s64-28.672 64-64c0-35.392-28.672-64-64-64zM256 704c-35.328 0-64 28.672-64 64s28.672 64 64 64 64-28.672 64-64-28.672-64-64-64zM448 448h-64v64h64v-64zM448 192h-64v64h64v-64zM704 192h-64v64h64v-64zM704 448h-64v64h64v-64zM576 192h-64v64h64v-64zM576 448h-64v64h64v-64z" />
<glyph unicode="&#xe627;" d="M192 384v64h640v-64h-640zM192 832h640v-64h-640v64zM576 576h-384v64h384v-64zM576 192h-384v64h384v-64z" />
<glyph unicode="&#xe628;" d="M192 832h640v-64h-640v64zM192 640h640v-64h-640v64zM192 448h640v-64h-640v64zM192 256h640v-64h-640v64z" />
<glyph unicode="&#xe629;" d="M928 704h-32v-512c0-70.656-57.344-128-128-128h-512c-70.656 0-128 57.344-128 128v512h-32c-17.664 0-32 14.336-32 32v64c0 17.664 14.336 32 32 32h288v64c0 35.392 28.608 64 64 64h128c35.392 0 64-28.608 64-64v-64h288c17.664 0 32-14.336 32-32v-64c0-17.664-14.336-32-32-32zM576 896h-128v-64h128v64zM768 640c0 35.392-28.608 64-64 64h-384c-35.392 0-64-28.608-64-64v-384c0-35.392 28.608-64 64-64h384c35.392 0 64 28.608 64 64v384zM576 576h64v-256h-64v256zM384 576h64v-256h-64v256z" />
<glyph unicode="&#xe62a;" d="M512 64c-247.424 0-448 200.576-448 448s200.576 448 448 448 448-200.576 448-448-200.576-448-448-448zM704 653.952l-50.048 50.048-141.952-141.952-141.952 141.952-50.048-50.048 141.952-141.952-141.952-141.952 50.048-50.048 141.952 141.952 141.952-141.952 50.048 50.048-141.952 141.952 141.952 141.952z" />
<glyph unicode="&#xe62b;" d="M896 0h-768v1024h512l256-256v-768zM832 768h-192v192h-448v-896h640v704z" />
<glyph unicode="&#xe62c;" d="M832 128h-640v768h384l256-256v-512zM768 640h-192v192h-320v-640h512v448z" />
<glyph unicode="&#xe62d;" d="M896 0h-768c-70.656 0-128 57.344-128 128v768c0 70.656 57.344 128 128 128h256c70.656 0 128-57.344 128-128v0h384c70.656 0 128-57.344 128-128v-640c0-70.656-57.344-128-128-128zM128 64h768c35.392 0 64 28.608 64 64v512h-896v-512c0-35.392 28.608-64 64-64zM896 832h-448v64c0 35.392-28.608 64-64 64h-256c-35.392 0-64-28.608-64-64v-192h896v64c0 35.392-28.608 64-64 64z" />
<glyph unicode="&#xe62e;" d="M768 256h-128v128h64c35.392 0 64 28.608 64 64v192c0 35.328-28.608 64-64 64h-384c-35.328 0-64-28.672-64-64v-192c0-35.392 28.672-64 64-64 0 0 30.912 0 68.032 0 3.2 0 187.968-128 187.968-128v-128c0 0-192.128 128-192 128-20.928 0-128 0-128 0-70.656 0-128 57.344-128 128v320c0 70.656 57.344 128 128 128h512c70.656 0 128-57.344 128-128v-320c0-70.656-57.344-128-128-128z" />
</font>
</defs>
</svg>
